<?xml version="1.0" standalone="no"?>
<!DOCTYPE svg PUBLIC "-//W3C//DTD SVG 1.1//EN" "http://www.w3.org/Graphics/SVG/1.1/DTD/svg11.dtd" >
<svg xmlns="http://www.w3.org/2000/svg">
<metadata></metadata>
<defs>
<font id="tungstensemibold" horiz-adv-x="688" >
<font-face units-per-em="2048" ascent="1638" descent="-410" />
<missing-glyph horiz-adv-x="260" />
<glyph unicode="&#xfb01;" horiz-adv-x="776" d="M33 944v180h63v107q0 223 223 223h115v-178h-74q-57 0 -57 -57v-95h125v-180h-125v-944h-207v944h-63zM498 1219v200h215v-200h-215zM502 0v1124h207v-1124h-207z" />
<glyph unicode="&#xfb02;" horiz-adv-x="776" d="M33 944v180h63v107q0 223 223 223h115v-178h-74q-57 0 -57 -57v-95h125v-180h-125v-944h-207v944h-63zM502 0v1454h207v-1454h-207z" />
<glyph unicode="&#xfb03;" horiz-adv-x="1181" d="M33 944v180h63v107q0 223 223 223h115v-178h-74q-57 0 -57 -57v-95h115v-180h-115v-944h-207v944h-63zM436 944v180h66v107q0 223 223 223h115v-178h-74q-57 0 -57 -57v-95h125v-180h-125v-944h-207v944h-66zM905 1219v200h215v-200h-215zM909 0v1124h207v-1124h-207z " />
<glyph unicode="&#xfb04;" horiz-adv-x="1181" d="M33 944v180h63v107q0 223 223 223h115v-178h-74q-57 0 -57 -57v-95h115v-180h-115v-944h-207v944h-63zM436 944v180h66v107q0 223 223 223h115v-178h-74q-57 0 -57 -57v-95h125v-180h-125v-944h-207v944h-66zM909 0v1454h207v-1454h-207z" />
<glyph horiz-adv-x="2048" />
<glyph horiz-adv-x="2048" />
<glyph unicode="&#xd;" horiz-adv-x="2048" />
<glyph unicode=" "  horiz-adv-x="260" />
<glyph unicode="&#x09;" horiz-adv-x="260" />
<glyph unicode="&#xa0;" horiz-adv-x="260" />
<glyph unicode="!" horiz-adv-x="348" d="M68 1104v330h211v-330l-56 -698h-98zM72 0v272h204v-272h-204z" />
<glyph unicode="&#x22;" horiz-adv-x="534" d="M37 885l31 549h188l-84 -549h-135zM291 885l33 549h188l-84 -549h-137z" />
<glyph unicode="#" horiz-adv-x="718" d="M31 225v228l98 24v373l-98 -25v228l98 24v361h164v-318l133 35v283h164v-240l98 27v-228l-98 -26v-373l98 27v-228l-98 -26v-375h-164v332l-133 -35v-297h-164v254zM293 520l133 35v373l-133 -35v-373z" />
<glyph unicode="$" horiz-adv-x="733" d="M61 256v299h209v-289q0 -84 82 -84h31q80 0 80 84v197q0 42 -14.5 67t-47.5 50l-215 155q-71 52 -98 106.5t-27 139.5v195q0 247 232 262v125h147v-125q117 -8 174.5 -72t57.5 -188v-256h-211v245q0 84 -80 84h-27q-80 0 -80 -84v-157q0 -42 15 -67t49 -50l211 -154 q72 -52 99.5 -105.5t27.5 -139.5v-236q0 -250 -236 -262v-133h-145v133q-234 12 -234 260z" />
<glyph unicode="%" horiz-adv-x="927" d="M49 752v514q0 88 44.5 134t129.5 46h90q85 0 129.5 -46t44.5 -134v-314l144 486h145l-192 -582q24 4 39 4h82q86 0 131 -46t45 -132v-514q0 -88 -45 -134t-131 -46h-89q-86 0 -131 46t-45 134v311l-143 -483h-143l190 579q-12 -2 -39 -2h-82q-86 0 -130 46t-44 133z M201 778q0 -59 53 -59h33q51 0 51 59v457q0 59 -51 59h-33q-53 0 -53 -59v-457zM590 199q0 -60 53 -60h31q53 0 53 60v456q0 60 -53 60h-33q-51 0 -51 -60v-456z" />
<glyph unicode="&#x26;" horiz-adv-x="890" d="M39 238v288q0 80 21.5 138.5t74.5 103.5l80 70l-47 86q-30 57 -39.5 100.5t-9.5 110.5v53q0 258 256 258h76q256 0 256 -254v-203h-207v189q0 75 -76 75h-18q-78 0 -78 -75v-50q0 -77 34 -139l218 -403l82 264h208l-159 -479l202 -371h-229l-82 150q-38 -89 -92 -125.5 t-160 -36.5h-61q-250 0 -250 250zM248 252q0 -76 74 -76h43q34 0 52 18.5t34 63.5l30 86l-168 311l-8 -6q-32 -28 -44.5 -55.5t-12.5 -73.5v-268z" />
<glyph unicode="'" horiz-adv-x="284" d="M37 885l31 549h194l-84 -549h-141z" />
<glyph unicode="(" horiz-adv-x="421" d="M63 563v307q0 178 19.5 284t67 187t145.5 179l113 -47q-77 -107 -111 -176.5t-51 -166.5t-17 -258v-311q0 -160 17 -257.5t51 -166t111 -176.5l-113 -47q-98 98 -145 178.5t-67 186.5t-20 284z" />
<glyph unicode=")" horiz-adv-x="421" d="M14 -39q77 108 111 176.5t51 166t17 257.5v311q0 161 -17 258t-51 166.5t-111 176.5l113 47q97 -97 144.5 -178.5t67 -187.5t19.5 -284v-307q0 -178 -19.5 -284t-66.5 -186.5t-145 -178.5z" />
<glyph unicode="*" horiz-adv-x="546" d="M29 940v129l147 76l-147 76v129h6l184 -107l-4 195h117l-6 -195l186 107h6v-129l-149 -76l149 -76v-129h-6l-184 107l4 -195h-117l4 195l-184 -107h-6z" />
<glyph unicode="+" horiz-adv-x="641" d="M20 649v158h218v223h168v-223h217v-158h-217v-223h-168v223h-218z" />
<glyph unicode="," horiz-adv-x="309" d="M49 -182l27 55q36 83 47 127h-72v272h207v-168q0 -85 -13.5 -127t-64.5 -114l-47 -70z" />
<glyph unicode="-" horiz-adv-x="436" d="M27 487v191h383v-191h-383z" />
<glyph unicode="." horiz-adv-x="309" d="M51 0v272h207v-272h-207z" />
<glyph unicode="/" horiz-adv-x="436" d="M6 -66l266 1565h160l-266 -1565h-160z" />
<glyph unicode="0" horiz-adv-x="763" d="M61 254v926q0 266 267 266h108q266 0 266 -266v-926q0 -266 -266 -266h-108q-267 0 -267 266zM279 264q0 -84 83 -84h41q82 0 82 84v905q0 84 -82 84h-41q-83 0 -83 -84v-905z" />
<glyph unicode="1" horiz-adv-x="440" d="M14 1145v160q66 6 105 28t78 74l24 33h139v-1440h-210v1145h-136z" />
<glyph unicode="2" horiz-adv-x="716" d="M49 0v258q0 79 24.5 141.5t88.5 143.5l231 291q33 40 45.5 69.5t12.5 67.5v198q0 84 -80 84h-27q-82 0 -82 -84v-254h-209v265q0 266 264 266h86q265 0 265 -266v-199q0 -78 -23.5 -141t-87.5 -142l-231 -290q-35 -44 -47.5 -76t-12.5 -82v-51h402v-199h-619z" />
<glyph unicode="3" horiz-adv-x="735" d="M47 252v227h209v-215q0 -84 84 -84h35q84 0 84 84v283q0 84 -80 84h-191v196h187q80 0 80 82v260q0 84 -80 84h-33q-82 0 -82 -84v-188h-209v199q0 266 266 266h89q266 0 266 -266v-226q0 -168 -119 -213q65 -19 94 -62.5t29 -121.5v-303q0 -266 -266 -266h-99 q-264 0 -264 264z" />
<glyph unicode="4" horiz-adv-x="716" d="M29 246v211l286 977h287v-998h103v-190h-103v-246h-196v246h-377zM205 436h201v694z" />
<glyph unicode="5" horiz-adv-x="733" d="M61 252v254h211v-242q0 -84 82 -84h27q82 0 82 84v369q0 90 -76 90q-33 0 -62 -16.5t-63 -55.5h-192v783h589v-199h-387l-4 -385q88 74 191 74q100 0 160.5 -63t60.5 -171v-436q0 -266 -264 -266h-92q-263 0 -263 264z" />
<glyph unicode="6" horiz-adv-x="747" d="M61 254v926q0 266 267 266h94q134 0 198 -64t64 -198v-197h-211v182q0 84 -80 84h-35q-79 0 -79 -84v-346q78 43 170 43h10q107 0 169 -65t62 -172v-375q0 -266 -266 -266h-96q-267 0 -267 266zM279 264q0 -84 79 -84h37q80 0 80 84v322q0 45 -20 65.5t-64 20.5 q-60 0 -112 -23v-385z" />
<glyph unicode="7" horiz-adv-x="604" d="M23 1235v199h546v-215l-268 -1219h-213l272 1235h-337z" />
<glyph unicode="8" horiz-adv-x="743" d="M57 254v307q0 78 29 121.5t94 62.5q-119 45 -119 213v222q0 266 267 266h88q266 0 266 -266v-222q0 -168 -119 -213q65 -19 94 -62.5t29 -121.5v-307q0 -266 -266 -266h-96q-267 0 -267 266zM270 260q0 -82 84 -82h37q82 0 82 82v297q0 82 -82 82h-37q-84 0 -84 -82v-297 zM272 909q0 -84 84 -84h33q82 0 82 84v265q0 81 -82 81h-33q-84 0 -84 -81v-265z" />
<glyph unicode="9" horiz-adv-x="745" d="M59 788v392q0 266 267 266h92q266 0 266 -266v-926q0 -266 -266 -266h-92q-135 0 -200 63.5t-65 198.5v180h211v-166q0 -84 80 -84h35q80 0 80 84v328q-80 -41 -168 -41h-8q-108 0 -170 65t-62 172zM274 831q0 -44 19.5 -65t62.5 -21q63 0 111 23v401q0 84 -80 84h-33 q-80 0 -80 -84v-338z" />
<glyph unicode=":" horiz-adv-x="309" d="M51 0v272h207v-272h-207zM51 850v272h207v-272h-207z" />
<glyph unicode=";" horiz-adv-x="309" d="M49 -182l27 55q36 83 47 127h-72v272h207v-168q0 -85 -13.5 -127t-64.5 -114l-47 -70zM51 850v272h207v-272h-207z" />
<glyph unicode="&#x3c;" horiz-adv-x="643" d="M31 621v217l565 194v-174l-422 -127l422 -123v-180z" />
<glyph unicode="=" horiz-adv-x="643" d="M31 500v159h581v-159h-581zM31 797v159h581v-159h-581z" />
<glyph unicode="&#x3e;" horiz-adv-x="643" d="M47 430v174l422 127l-422 123v180l565 -192v-217z" />
<glyph unicode="?" horiz-adv-x="673" d="M35 924v256q0 266 266 266h72q266 0 266 -266v-195q0 -74 -23.5 -123t-91.5 -125l-84 -96q-24 -28 -30.5 -52.5t-6.5 -70.5v-129h-167v207q0 79 17.5 118t76.5 103l43 49q27 30 38 54t11 57v192q0 84 -80 84h-27q-82 0 -82 -84v-245h-198zM217 0v272h205v-272h-205z" />
<glyph unicode="@" horiz-adv-x="1019" d="M70 182v764q0 182 75 259t244 77h242q169 0 244 -77t75 -259v-715q0 -88 -37 -129t-114 -41h-70q-58 0 -89.5 19.5t-49.5 62.5q-75 -84 -168 -84q-71 0 -110.5 43t-39.5 119v223q0 82 28.5 124t100.5 67l172 57v166q0 31 -13.5 45.5t-43.5 14.5h-10q-60 0 -60 -60v-123 h-163v144q0 192 198 192h62q196 0 196 -192v-697q0 -51 49 -51h13q76 0 76 102v713q0 147 -56.5 206.5t-189.5 59.5h-242q-133 0 -189.5 -59.5t-56.5 -206.5v-764q0 -147 56.5 -206.5t189.5 -59.5h494v-70h-494q-172 0 -245.5 75.5t-73.5 260.5zM438 272q0 -55 54 -55 q31 0 81 29v295l-88 -33q-26 -10 -36.5 -27.5t-10.5 -48.5v-160z" />
<glyph unicode="A" horiz-adv-x="751" d="M25 0l204 1436h291l207 -1436h-217l-29 225h-227l-27 -225h-202zM279 420h178l-88 717z" />
<glyph unicode="B" horiz-adv-x="747" d="M66 0v1434h354q266 0 266 -267v-211q0 -93 -30.5 -145t-92.5 -74q65 -22 96 -71t31 -136v-264q0 -266 -266 -266h-358zM283 193h108q82 0 82 81v273q0 90 -90 90h-100v-444zM283 823h96q90 0 90 90v246q0 82 -82 82h-104v-418z" />
<glyph unicode="C" horiz-adv-x="759" d="M61 254v926q0 266 267 266h106q134 0 199 -65t65 -199v-293h-215v280q0 84 -82 84h-36q-84 0 -84 -84v-905q0 -84 84 -84h41q81 0 81 84v324h215v-334q0 -266 -266 -266h-108q-267 0 -267 266z" />
<glyph unicode="D" horiz-adv-x="770" d="M66 0v1434h329q159 0 236.5 -77.5t77.5 -236.5v-807q0 -159 -77.5 -236t-236.5 -77h-329zM285 193h80q64 0 94 30.5t30 95.5v795q0 65 -30 96t-94 31h-80v-1048z" />
<glyph unicode="E" horiz-adv-x="608" d="M66 0v1434h487v-199h-268v-406h258v-198h-258v-432h272v-199h-491z" />
<glyph unicode="F" horiz-adv-x="585" d="M66 0v1434h477v-199h-258v-414h247v-198h-247v-623h-219z" />
<glyph unicode="G" horiz-adv-x="770" d="M61 254v926q0 266 267 266h114q265 0 265 -264v-232h-215v219q0 84 -82 84h-45q-84 0 -84 -84v-905q0 -84 84 -84h49q84 0 84 84v330h-115v188h328v-528q0 -266 -267 -266h-116q-267 0 -267 266z" />
<glyph unicode="H" horiz-adv-x="780" d="M66 0v1434h219v-605h211v605h219v-1434h-219v631h-211v-631h-219z" />
<glyph unicode="I" horiz-adv-x="354" d="M68 0v1434h219v-1434h-219z" />
<glyph unicode="J" horiz-adv-x="497" d="M33 0v199h96q84 0 84 84v1151h219v-1168q0 -266 -266 -266h-133z" />
<glyph unicode="K" horiz-adv-x="745" d="M66 0v1434h219v-693l227 693h229l-245 -705l237 -729h-235l-213 702v-702h-219z" />
<glyph unicode="L" horiz-adv-x="561" d="M66 0v1434h219v-1235h241v-199h-460z" />
<glyph unicode="M" horiz-adv-x="1062" d="M66 0v1434h327l139 -1010l140 1010h325v-1434h-215v1075l-157 -1075h-213l-158 1079v-1079h-188z" />
<glyph unicode="N" horiz-adv-x="786" d="M66 0v1434h256l204 -891l-2 891h197v-1434h-238l-223 967l2 -967h-196z" />
<glyph unicode="O" horiz-adv-x="772" d="M61 254v926q0 266 267 266h116q267 0 267 -266v-926q0 -266 -267 -266h-116q-267 0 -267 266zM281 264q0 -84 84 -84h45q82 0 82 84v905q0 84 -82 84h-45q-84 0 -84 -84v-905z" />
<glyph unicode="P" horiz-adv-x="718" d="M66 0v1434h344q266 0 266 -267v-381q0 -266 -266 -266h-125v-520h-219zM285 713h90q82 0 82 84v360q0 84 -82 84h-90v-528z" />
<glyph unicode="Q" horiz-adv-x="772" d="M61 254v926q0 266 267 266h116q267 0 267 -266v-904q0 -169 -109 -225l146 -59l-107 -166l-264 162h-49q-267 0 -267 266zM281 264q0 -84 84 -84h45q82 0 82 84v905q0 84 -82 84h-45q-84 0 -84 -84v-905z" />
<glyph unicode="R" horiz-adv-x="755" d="M66 0v1434h360q266 0 266 -267v-270q0 -92 -31 -143.5t-94 -77.5q68 -19 97.5 -63t29.5 -126v-487h-219v483q0 92 -92 92h-98v-575h-219zM285 766h98q90 0 90 88v303q0 82 -82 82h-106v-473z" />
<glyph unicode="S" horiz-adv-x="739" d="M59 252v303h213v-295q0 -82 84 -82h29q84 0 84 82v197q0 42 -14 66.5t-47 49.5l-222 162q-72 51 -99.5 107t-27.5 141v197q0 266 267 266h92q264 0 264 -264v-260h-215v252q0 81 -82 81h-27q-82 0 -82 -81v-160q0 -42 14.5 -68t47.5 -49l221 -162q72 -52 99.5 -106 t27.5 -142v-233q0 -266 -266 -266h-96q-265 0 -265 264z" />
<glyph unicode="T" horiz-adv-x="653" d="M20 1235v199h613v-199h-197v-1235h-219v1235h-197z" />
<glyph unicode="U" horiz-adv-x="765" d="M63 254v1180h220v-1170q0 -84 84 -84h34q82 0 82 84v1170h219v-1180q0 -266 -266 -266h-106q-267 0 -267 266z" />
<glyph unicode="V" horiz-adv-x="739" d="M25 1434h221l131 -1057l131 1057h207l-211 -1436h-268z" />
<glyph unicode="W" horiz-adv-x="1130" d="M35 1434h221l102 -1012l111 1012h211l111 -1010l102 1010h201l-174 -1434h-258l-97 858l-96 -858h-260z" />
<glyph unicode="X" horiz-adv-x="739" d="M27 0l200 707l-196 727h225l119 -512l123 512h211l-197 -709l201 -725h-226l-120 514l-129 -514h-211z" />
<glyph unicode="Y" horiz-adv-x="706" d="M8 1434h225l125 -605l129 605h211l-235 -932v-502h-219v492z" />
<glyph unicode="Z" horiz-adv-x="610" d="M39 0v215l319 1022h-309v197h522v-215l-317 -1022h317v-197h-532z" />
<glyph unicode="[" horiz-adv-x="419" d="M78 -66v1565h325v-129h-163v-1307h163v-129h-325z" />
<glyph unicode="\" horiz-adv-x="436" d="M6 1499h160l266 -1565h-160z" />
<glyph unicode="]" horiz-adv-x="419" d="M14 63h164v1307h-164v129h326v-1565h-326v129z" />
<glyph unicode="^" horiz-adv-x="819" d="M133 1014l205 420h143l205 -420h-156l-120 256l-121 -256h-156z" />
<glyph unicode="_" horiz-adv-x="937" d="M-4 -45h946v-160h-946v160z" />
<glyph unicode="`" horiz-adv-x="1024" d="M397 1432h207l76 -226h-145z" />
<glyph unicode="a" d="M53 178v228q0 99 35 148.5t123 78.5l215 74v174q0 75 -76 75h-14q-76 0 -76 -75v-140h-194v146q0 250 249 250h66q250 0 250 -250v-887h-203v72q-48 -41 -92 -62.5t-103 -21.5h-2q-88 0 -133 49t-45 141zM254 238q0 -64 65 -64q54 0 107 33v325l-113 -43 q-34 -15 -46.5 -34.5t-12.5 -57.5v-159z" />
<glyph unicode="b" horiz-adv-x="710" d="M59 0v1454h207v-405q92 88 195 88h2q93 0 142.5 -56t49.5 -155v-727q0 -99 -49.5 -155t-142.5 -56h-2q-105 0 -197 80v-68h-205zM266 213q50 -37 109 -37q74 0 74 70v633q0 69 -74 69q-59 0 -109 -37v-698z" />
<glyph unicode="c" horiz-adv-x="692" d="M55 238v649q0 250 250 250h86q248 0 248 -248v-205h-203v190q0 76 -76 76h-24q-74 0 -74 -76v-624q0 -76 74 -76h26q76 0 76 76v227h203v-239q0 -250 -250 -250h-86q-250 0 -250 250z" />
<glyph unicode="d" horiz-adv-x="710" d="M55 199v727q0 99 50.5 155t144.5 56h2q100 0 192 -80v397h207v-1454h-205v76q-92 -88 -194 -88h-2q-94 0 -144.5 56t-50.5 155zM262 246q0 -70 74 -70q58 0 108 37v698q-50 37 -108 37q-74 0 -74 -69v-633z" />
<glyph unicode="e" d="M55 238v649q0 250 250 250h80q250 0 250 -250v-406h-375v-233q0 -76 74 -76h26q76 0 76 76v119h199v-129q0 -250 -250 -250h-80q-250 0 -250 250zM260 657h172v222q0 75 -76 75h-22q-74 0 -74 -75v-222z" />
<glyph unicode="f" horiz-adv-x="440" d="M33 944v180h63v107q0 223 223 223h115v-178h-74q-57 0 -57 -57v-95h125v-180h-125v-944h-207v944h-63z" />
<glyph unicode="g" horiz-adv-x="710" d="M55 319v607q0 99 50.5 155t144.5 56h2q102 0 194 -80v67h205v-1118q0 -123 -59 -181t-182 -58h-134q-111 0 -164 52.5t-53 162.5v65h189v-49q0 -68 63 -68h72q63 0 63 68v188q-91 -77 -194 -77h-2q-94 0 -144.5 55.5t-50.5 154.5zM262 362q0 -69 74 -69q54 0 108 35v583 q-50 37 -108 37q-74 0 -74 -69v-517z" />
<glyph unicode="h" horiz-adv-x="708" d="M59 0v1454h207v-403q93 86 195 86h10q89 0 134.5 -49.5t45.5 -143.5v-944h-207v883q0 34 -16 49.5t-51 15.5q-52 0 -111 -35v-913h-207z" />
<glyph unicode="i" horiz-adv-x="335" d="M59 1219v200h215v-200h-215zM63 0v1124h207v-1124h-207z" />
<glyph unicode="j" horiz-adv-x="337" d="M-10 -55h18q58 0 58 57v1122h206v-1138q0 -215 -213 -215h-69v174zM61 1219v200h215v-200h-215z" />
<glyph unicode="k" horiz-adv-x="677" d="M59 0v1454h207v-876l191 546h217l-209 -551l201 -573h-222l-178 559v-559h-207z" />
<glyph unicode="l" horiz-adv-x="335" d="M63 0v1454h207v-1454h-207z" />
<glyph unicode="m" horiz-adv-x="1079" d="M59 0v1124h205v-73q97 86 195 86h8q118 0 160 -95q102 95 209 95h8q86 0 132 -49.5t46 -141.5v-946h-207v885q0 63 -63 63q-51 0 -107 -35v-913h-209v885q0 63 -61 63q-50 0 -109 -35v-913h-207z" />
<glyph unicode="n" horiz-adv-x="708" d="M59 0v1124h205v-73q46 41 92 63.5t105 22.5h10q89 0 134.5 -49.5t45.5 -143.5v-944h-207v883q0 34 -16 49.5t-51 15.5q-52 0 -111 -35v-913h-207z" />
<glyph unicode="o" horiz-adv-x="704" d="M55 238v649q0 250 250 250h96q250 0 250 -250v-649q0 -250 -250 -250h-96q-250 0 -250 250zM262 250q0 -76 74 -76h33q75 0 75 76v624q0 76 -75 76h-33q-74 0 -74 -76v-624z" />
<glyph unicode="p" horiz-adv-x="710" d="M59 -225v1349h205v-75q92 88 197 88h2q93 0 142.5 -56t49.5 -155v-727q0 -99 -49.5 -155t-142.5 -56h-2q-103 0 -195 80v-293h-207zM266 213q50 -37 109 -37q74 0 74 70v633q0 69 -74 69q-59 0 -109 -37v-698z" />
<glyph unicode="q" horiz-adv-x="710" d="M55 199v727q0 99 50.5 155t144.5 56h2q102 0 194 -80v67h205v-1349h-207v301q-92 -88 -192 -88h-2q-94 0 -144.5 56t-50.5 155zM262 246q0 -70 74 -70q58 0 108 37v698q-50 37 -108 37q-74 0 -74 -69v-633z" />
<glyph unicode="r" horiz-adv-x="460" d="M59 0v1124h205v-120q37 70 75.5 100.5t98.5 30.5v-230q-110 -9 -172 -65v-840h-207z" />
<glyph unicode="s" horiz-adv-x="675" d="M53 236v170h201v-164q0 -74 72 -74h26q74 0 74 74v94q0 56 -49 88l-197 121q-67 43 -96 89.5t-29 123.5v129q0 250 250 250h70q248 0 248 -248v-164h-201v158q0 73 -74 73h-22q-72 0 -72 -73v-88q0 -31 10.5 -50t38.5 -36l195 -123q69 -43 98 -88.5t29 -124.5v-135 q0 -250 -250 -250h-74q-248 0 -248 248z" />
<glyph unicode="t" horiz-adv-x="440" d="M29 944v180h73v185h207v-185h109v-180h-109v-944h-207v944h-73z" />
<glyph unicode="u" horiz-adv-x="708" d="M57 180v944h207v-882q0 -66 68 -66q54 0 110 35v913h207v-1124h-205v74q-93 -86 -196 -86h-8q-90 0 -136.5 49t-46.5 143z" />
<glyph unicode="v" horiz-adv-x="673" d="M23 1124h208l111 -798l111 798h196l-186 -1124h-252z" />
<glyph unicode="w" horiz-adv-x="989" d="M25 1124h204l80 -727l99 727h186l98 -725l80 725h193l-168 -1124h-211l-88 653l-95 -653h-210z" />
<glyph unicode="x" horiz-adv-x="645" d="M6 0l184 545l-180 579h217l99 -370l106 370h203l-182 -546l186 -578h-217l-103 373l-110 -373h-203z" />
<glyph unicode="y" horiz-adv-x="669" d="M18 1124h207l109 -684l121 684h198l-282 -1349h-199l59 268z" />
<glyph unicode="z" horiz-adv-x="567" d="M33 0v180l289 764h-279v180h492v-180l-291 -764h291v-180h-502z" />
<glyph unicode="{" horiz-adv-x="526" d="M25 657v123l69 13q40 8 57 23t17 50v148q0 106 7 167.5t34.5 120t68.5 103t121 115.5l113 -47q-66 -78 -97.5 -121t-51.5 -96.5t-23.5 -100t-3.5 -139.5v-84q0 -166 -123 -213q65 -19 94 -62.5t29 -121.5v-117q0 -93 3.5 -139.5t23.5 -100t51.5 -96.5t97.5 -121l-113 -47 q-80 71 -121 115.5t-68.5 103t-34.5 120t-7 167.5v149q0 36 -17.5 51t-56.5 23z" />
<glyph unicode="|" horiz-adv-x="507" d="M178 -137v1700h152v-1700h-152z" />
<glyph unicode="}" horiz-adv-x="526" d="M14 -39q66 78 97.5 121t51.5 96.5t23.5 100t3.5 139.5v117q0 78 29 121.5t94 62.5q-123 47 -123 213v84q0 93 -3.5 139.5t-23.5 100t-51.5 96.5t-97.5 121l113 47q80 -71 121 -115.5t68.5 -103t34.5 -120t7 -167.5v-148q0 -35 17 -50t57 -23l70 -13v-123l-70 -14 q-39 -8 -56.5 -23t-17.5 -51v-149q0 -106 -7 -167.5t-34.5 -120t-68.5 -103t-121 -115.5z" />
<glyph unicode="~" horiz-adv-x="817" d="M152 596v141q0 103 98 103h22q64 0 107 -31l96 -66q29 -20 49 -20h2q13 0 17 6t4 19v92h121v-142q0 -102 -99 -102h-22q-64 0 -107 31l-94 65q-33 21 -51 21h-2q-21 0 -21 -25v-92h-120z" />
<glyph unicode="&#xa1;" horiz-adv-x="348" d="M68 0v330l55 698h98l58 -698v-330h-211zM70 1161v273h204v-273h-204z" />
<glyph unicode="&#xa2;" horiz-adv-x="686" d="M59 383v676q0 230 213 248v133h148v-133q207 -21 207 -248v-209h-199v201q0 75 -74 75h-18q-76 0 -76 -75v-660q0 -76 76 -76h20q74 0 74 76v238h199v-246q0 -229 -209 -250v-139h-148v139q-213 18 -213 250z" />
<glyph unicode="&#xa3;" horiz-adv-x="780" d="M37 0v199h84v360h-84v195h84v426q0 266 266 266h80q133 0 198.5 -65t65.5 -199v-234h-209v221q0 84 -82 84h-22q-80 0 -80 -84v-415h258v-195h-258v-360h397v-199h-698z" />
<glyph unicode="&#xa5;" horiz-adv-x="700" d="M12 1434h221l121 -592l127 592h207l-213 -834h172v-125h-190v-84h190v-127h-190v-264h-213v264h-191v127h191v84h-191v125h170z" />
<glyph unicode="&#xa7;" horiz-adv-x="735" d="M63 252v174h205v-168q0 -82 84 -82h25q84 0 84 82v139q0 33 -15.5 51t-48.5 31l-204 84q-80 32 -103.5 71t-23.5 118v34l454 -182q85 -35 117.5 -80t32.5 -139v-131q0 -266 -267 -266h-75q-265 0 -265 264zM66 1049v131q0 266 266 266h76q134 0 199 -65t65 -199v-174 h-205v168q0 81 -84 81h-27q-82 0 -82 -81v-140q0 -34 15 -51.5t49 -30.5l205 -84q80 -32 103.5 -70.5t23.5 -117.5v-35l-455 182q-84 35 -116.5 80.5t-32.5 139.5z" />
<glyph unicode="&#xa8;" horiz-adv-x="1024" d="M301 1206v211h170v-211h-170zM553 1206v211h170v-211h-170z" />
<glyph unicode="&#xa9;" horiz-adv-x="1009" d="M70 324v786q0 178 77 257t242 79h232q165 0 242 -79t77 -257v-786q0 -178 -77 -257t-242 -79h-232q-165 0 -242 79t-77 257zM123 324q0 -152 64.5 -219.5t201.5 -67.5h232q137 0 201.5 67.5t64.5 219.5v786q0 152 -64.5 219.5t-201.5 67.5h-232q-137 0 -201.5 -67.5 t-64.5 -219.5v-786zM279 371v694q0 95 47.5 140.5t146.5 45.5h66q196 0 196 -186v-219h-164v198q0 54 -53 54h-18q-56 0 -56 -54v-651q0 -29 13.5 -42t42.5 -13h20q29 0 42 13t13 42v225h164v-247q0 -187 -196 -187h-70q-98 0 -146 46t-48 141z" />
<glyph unicode="&#xaa;" horiz-adv-x="464" d="M57 956v97q0 54 19.5 83t66.5 44l142 43v73q0 45 -45 45h-15q-47 0 -47 -45v-55h-115v68q0 137 144 137h53q71 0 108.5 -35t37.5 -102v-459h-119v47q-24 -20 -37 -29t-35 -16.5t-49 -7.5h-4q-49 0 -77 28.5t-28 83.5zM176 993q0 -21 9 -30t30 -9q39 0 70 25v141l-78 -24 q-31 -11 -31 -52v-51z" />
<glyph unicode="&#xab;" horiz-adv-x="534" d="M8 582l127 327h154l-105 -327l105 -326h-152zM248 582l110 327h154l-88 -327l88 -326h-150z" />
<glyph unicode="&#xad;" horiz-adv-x="436" d="M27 487v191h383v-191h-383z" />
<glyph unicode="&#xae;" horiz-adv-x="606" d="M43 885v364q0 105 47.5 151t151.5 46h123q104 0 151 -46t47 -151v-364q0 -106 -47 -152.5t-151 -46.5h-123q-104 0 -151.5 46.5t-47.5 152.5zM84 885q0 -86 37 -123t121 -37h123q84 0 120.5 37t36.5 123v364q0 85 -37 121.5t-120 36.5h-123q-84 0 -121 -37t-37 -121v-364 zM170 815v504h164q112 0 112 -92v-105q0 -60 -53 -75q29 -7 41 -22.5t12 -43.5v-166h-96v156q0 33 -39 33h-43v-189h-98zM268 1085h43q39 0 39 29v94q0 27 -35 27h-47v-150z" />
<glyph unicode="&#xaf;" horiz-adv-x="1024" d="M295 1221v155h434v-155h-434z" />
<glyph unicode="&#xb0;" horiz-adv-x="526" d="M41 872v402q0 82 44.5 127t123.5 45h110q79 0 122.5 -44.5t43.5 -127.5v-402q0 -83 -44 -128.5t-122 -45.5h-110q-79 0 -123.5 45.5t-44.5 128.5zM190 899q0 -57 54 -57h41q53 0 53 57v344q0 60 -53 60h-41q-54 0 -54 -60v-344z" />
<glyph unicode="&#xb1;" horiz-adv-x="643" d="M20 305v160h603v-160h-603zM23 778v158h217v223h166v-223h219v-158h-219v-223h-166v223h-217z" />
<glyph unicode="&#xb4;" horiz-adv-x="1024" d="M385 1206l76 226h207l-138 -226h-145z" />
<glyph unicode="&#xb6;" horiz-adv-x="708" d="M61 350v731q0 179 87.5 266t265.5 87h229v-1434h-141v1290h-115v-1290h-6q-320 13 -320 350z" />
<glyph unicode="&#xb7;" horiz-adv-x="309" d="M51 477v273h207v-273h-207z" />
<glyph unicode="&#xb8;" horiz-adv-x="1024" d="M399 -201l93 201h131l-41 -201h-183z" />
<glyph unicode="&#xba;" horiz-adv-x="479" d="M59 989v311q0 72 37.5 109t106.5 37h73q71 0 108.5 -37t37.5 -109v-311q0 -72 -37.5 -108.5t-108.5 -36.5h-73q-70 0 -107 37t-37 108zM180 1001q0 -47 45 -47h31q45 0 45 47v287q0 47 -45 47h-31q-45 0 -45 -47v-287z" />
<glyph unicode="&#xbb;" horiz-adv-x="534" d="M20 256l89 326l-89 327h154l111 -327l-115 -326h-150zM244 256l104 326l-104 327h153l127 -327l-129 -326h-151z" />
<glyph unicode="&#xbf;" horiz-adv-x="673" d="M35 254v195q0 74 23.5 122.5t91.5 124.5l83 97q24 28 30.5 52t6.5 70v129h168v-206q0 -79 -17.5 -118.5t-76.5 -103.5l-43 -49q-27 -30 -38 -53.5t-11 -56.5v-193q0 -84 80 -84h26q82 0 82 84v246h199v-256q0 -266 -266 -266h-72q-266 0 -266 266zM252 1161v273h205v-273 h-205z" />
<glyph unicode="&#xc0;" horiz-adv-x="751" d="M25 0l204 1436h291l207 -1436h-217l-29 225h-227l-27 -225h-202zM154 1700h211l90 -182h-150zM279 420h178l-88 717z" />
<glyph unicode="&#xc1;" horiz-adv-x="751" d="M25 0l204 1436h291l207 -1436h-217l-29 225h-227l-27 -225h-202zM279 420h178l-88 717zM301 1518l88 182h207l-150 -182h-145z" />
<glyph unicode="&#xc2;" horiz-adv-x="751" d="M25 0l204 1436h291l207 -1436h-217l-29 225h-227l-27 -225h-202zM150 1518l143 198h168l143 -198h-135l-92 79l-92 -79h-135zM279 420h178l-88 717z" />
<glyph unicode="&#xc3;" horiz-adv-x="751" d="M25 0l204 1436h291l207 -1436h-217l-29 225h-227l-27 -225h-202zM145 1518v98q0 104 99 104h18q52 0 96 -24l64 -39q29 -15 45 -15q20 0 20 25v53h121v-100q0 -102 -98 -102h-18q-33 0 -52 4.5t-43 19.5l-65 37q-27 14 -45 14q-21 0 -21 -24v-51h-121zM279 420h178 l-88 717z" />
<glyph unicode="&#xc4;" horiz-adv-x="751" d="M25 0l204 1436h291l207 -1436h-217l-29 225h-227l-27 -225h-202zM162 1518v168h174v-168h-174zM279 420h178l-88 717zM418 1518v168h174v-168h-174z" />
<glyph unicode="&#xc5;" horiz-adv-x="751" d="M25 0l196 1354q-53 26 -53 94v10q0 51 33.5 80t99.5 29h148q66 0 99.5 -29t33.5 -80v-10q0 -67 -52 -94l197 -1354h-217l-29 225h-227l-27 -225h-202zM221 1446q0 -62 84 -62h141q82 0 82 62v12q0 62 -82 62h-141q-84 0 -84 -62v-12zM279 420h178l-88 719z" />
<glyph unicode="&#xc6;" horiz-adv-x="976" d="M25 0l268 1434h631v-199h-269v-406h258v-198h-258v-432h273v-199h-492v225h-172l-37 -225h-202zM297 420h139v840z" />
<glyph unicode="&#xc7;" horiz-adv-x="759" d="M61 254v926q0 266 267 266h106q134 0 199 -65t65 -199v-293h-215v280q0 84 -82 84h-36q-84 0 -84 -84v-905q0 -84 84 -84h41q81 0 81 84v324h215v-334q0 -254 -243 -266l-39 -189h-182l86 189q-263 3 -263 266z" />
<glyph unicode="&#xc8;" horiz-adv-x="608" d="M66 0v1434h487v-199h-268v-406h258v-198h-258v-432h272v-199h-491zM88 1700h211l90 -182h-149z" />
<glyph unicode="&#xc9;" horiz-adv-x="608" d="M66 0v1434h487v-199h-268v-406h258v-198h-258v-432h272v-199h-491zM236 1518l88 182h206l-149 -182h-145z" />
<glyph unicode="&#xca;" horiz-adv-x="608" d="M66 0v1434h487v-199h-268v-406h258v-198h-258v-432h272v-199h-491zM84 1518l143 198h168l144 -198h-136l-92 79l-92 -79h-135z" />
<glyph unicode="&#xcb;" horiz-adv-x="608" d="M66 0v1434h487v-199h-268v-406h258v-198h-258v-432h272v-199h-491zM96 1518v168h174v-168h-174zM352 1518v168h174v-168h-174z" />
<glyph unicode="&#xcc;" horiz-adv-x="354" d="M-45 1700h211l90 -182h-150zM68 0v1434h219v-1434h-219z" />
<glyph unicode="&#xcd;" horiz-adv-x="354" d="M68 0v1434h219v-1434h-219zM102 1518l88 182h207l-149 -182h-146z" />
<glyph unicode="&#xce;" horiz-adv-x="354" d="M-49 1518l143 198h168l144 -198h-136l-92 79l-92 -79h-135zM68 0v1434h219v-1434h-219z" />
<glyph unicode="&#xcf;" horiz-adv-x="354" d="M-37 1518v168h174v-168h-174zM68 0v1434h219v-1434h-219zM219 1518v168h174v-168h-174z" />
<glyph unicode="&#xd0;" horiz-adv-x="794" d="M4 639v176h86v619h330q159 0 236 -77.5t77 -236.5v-807q0 -159 -77 -236t-236 -77h-330v639h-86zM309 193h80q64 0 94.5 30.5t30.5 95.5v795q0 65 -30.5 96t-94.5 31h-80v-426h123v-176h-123v-446z" />
<glyph unicode="&#xd1;" horiz-adv-x="786" d="M66 0v1434h256l204 -891l-2 891h197v-1434h-238l-223 967l2 -967h-196zM166 1518v98q0 104 98 104h19q52 0 96 -24l63 -39q29 -15 45 -15q21 0 21 25v53h121v-100q0 -102 -99 -102h-18q-33 0 -51.5 4.5t-42.5 19.5l-66 37q-27 14 -45 14q-20 0 -20 -24v-51h-121z" />
<glyph unicode="&#xd2;" horiz-adv-x="772" d="M61 254v926q0 266 267 266h116q267 0 267 -266v-926q0 -266 -267 -266h-116q-267 0 -267 266zM164 1700h211l90 -182h-150zM281 264q0 -84 84 -84h45q82 0 82 84v905q0 84 -82 84h-45q-84 0 -84 -84v-905z" />
<glyph unicode="&#xd3;" horiz-adv-x="772" d="M61 254v926q0 266 267 266h116q267 0 267 -266v-926q0 -266 -267 -266h-116q-267 0 -267 266zM281 264q0 -84 84 -84h45q82 0 82 84v905q0 84 -82 84h-45q-84 0 -84 -84v-905zM311 1518l88 182h207l-149 -182h-146z" />
<glyph unicode="&#xd4;" horiz-adv-x="772" d="M61 254v926q0 266 267 266h116q267 0 267 -266v-926q0 -266 -267 -266h-116q-267 0 -267 266zM160 1518l143 198h168l143 -198h-135l-92 79l-92 -79h-135zM281 264q0 -84 84 -84h45q82 0 82 84v905q0 84 -82 84h-45q-84 0 -84 -84v-905z" />
<glyph unicode="&#xd5;" horiz-adv-x="772" d="M61 254v926q0 266 267 266h116q267 0 267 -266v-926q0 -266 -267 -266h-116q-267 0 -267 266zM156 1518v98q0 104 98 104h18q53 0 97 -24l63 -39q29 -15 45 -15q21 0 21 25v53h120v-100q0 -102 -98 -102h-18q-33 0 -51.5 4.5t-42.5 19.5l-66 37q-27 14 -45 14 q-21 0 -21 -24v-51h-120zM281 264q0 -84 84 -84h45q82 0 82 84v905q0 84 -82 84h-45q-84 0 -84 -84v-905z" />
<glyph unicode="&#xd6;" horiz-adv-x="772" d="M61 254v926q0 266 267 266h116q267 0 267 -266v-926q0 -266 -267 -266h-116q-267 0 -267 266zM172 1518v168h174v-168h-174zM281 264q0 -84 84 -84h45q82 0 82 84v905q0 84 -82 84h-45q-84 0 -84 -84v-905zM428 1518v168h174v-168h-174z" />
<glyph unicode="&#xd7;" horiz-adv-x="643" d="M37 557l168 168l-168 170l117 119l170 -170l170 170l112 -115l-170 -170l170 -168l-117 -119l-170 170l-169 -170z" />
<glyph unicode="&#xd8;" horiz-adv-x="772" d="M61 254v926q0 266 267 266h116q267 0 267 -266v-926q0 -266 -267 -266h-116q-267 0 -267 266zM274 485l205 738q-18 30 -69 30h-45q-84 0 -84 -84zM293 209q23 -29 72 -29h43q86 0 86 84l2 680z" />
<glyph unicode="&#xd9;" horiz-adv-x="765" d="M63 254v1180h220v-1170q0 -84 84 -84h34q82 0 82 84v1170h219v-1180q0 -266 -266 -266h-106q-267 0 -267 266zM160 1700h211l90 -182h-150z" />
<glyph unicode="&#xda;" horiz-adv-x="765" d="M63 254v1180h220v-1170q0 -84 84 -84h34q82 0 82 84v1170h219v-1180q0 -266 -266 -266h-106q-267 0 -267 266zM307 1518l88 182h207l-149 -182h-146z" />
<glyph unicode="&#xdb;" horiz-adv-x="765" d="M63 254v1180h220v-1170q0 -84 84 -84h34q82 0 82 84v1170h219v-1180q0 -266 -266 -266h-106q-267 0 -267 266zM156 1518l143 198h168l143 -198h-135l-92 79l-92 -79h-135z" />
<glyph unicode="&#xdc;" horiz-adv-x="765" d="M63 254v1180h220v-1170q0 -84 84 -84h34q82 0 82 84v1170h219v-1180q0 -266 -266 -266h-106q-267 0 -267 266zM168 1518v168h174v-168h-174zM424 1518v168h174v-168h-174z" />
<glyph unicode="&#xdd;" horiz-adv-x="706" d="M8 1434h225l125 -605l129 605h211l-235 -932v-502h-219v492zM283 1518l88 182h207l-150 -182h-145z" />
<glyph unicode="&#xde;" horiz-adv-x="718" d="M66 0v1434h219v-256h125q266 0 266 -267v-379q0 -266 -266 -266h-125v-266h-219zM285 459h90q82 0 82 82v362q0 82 -82 82h-90v-526z" />
<glyph unicode="&#xdf;" horiz-adv-x="714" d="M59 0v1194q0 129 66 194.5t194 65.5h78q260 0 260 -260v-227q0 -90 -29.5 -140t-88.5 -73q64 -19 93.5 -63t29.5 -122v-319q0 -250 -250 -250h-84v186h55q74 0 74 76v305q0 80 -78 80h-51v189h47q78 0 78 77v273q0 80 -78 80h-29q-80 0 -80 -80v-1186h-207z" />
<glyph unicode="&#xe0;" d="M53 178v228q0 99 35 148.5t123 78.5l215 74v174q0 75 -76 75h-14q-76 0 -76 -75v-140h-194v146q0 250 249 250h66q250 0 250 -250v-887h-203v72q-48 -41 -92 -62.5t-103 -21.5h-2q-88 0 -133 49t-45 141zM152 1432h206l76 -226h-145zM254 238q0 -64 65 -64q54 0 107 33 v325l-113 -43q-34 -15 -46.5 -34.5t-12.5 -57.5v-159z" />
<glyph unicode="&#xe1;" d="M53 178v228q0 99 35 148.5t123 78.5l215 74v174q0 75 -76 75h-14q-76 0 -76 -75v-140h-194v146q0 250 249 250h66q250 0 250 -250v-887h-203v72q-48 -41 -92 -62.5t-103 -21.5h-2q-88 0 -133 49t-45 141zM254 238q0 -64 65 -64q54 0 107 33v325l-113 -43 q-34 -15 -46.5 -34.5t-12.5 -57.5v-159zM283 1206l75 226h207l-137 -226h-145z" />
<glyph unicode="&#xe2;" d="M53 178v228q0 99 35 148.5t123 78.5l215 74v174q0 75 -76 75h-14q-76 0 -76 -75v-140h-194v146q0 250 249 250h66q250 0 250 -250v-887h-203v72q-48 -41 -92 -62.5t-103 -21.5h-2q-88 0 -133 49t-45 141zM139 1206l135 226h168l136 -226h-136l-84 101l-84 -101h-135z M254 238q0 -64 65 -64q54 0 107 33v325l-113 -43q-34 -15 -46.5 -34.5t-12.5 -57.5v-159z" />
<glyph unicode="&#xe3;" d="M53 178v228q0 99 35 148.5t123 78.5l215 74v174q0 75 -76 75h-14q-76 0 -76 -75v-140h-194v146q0 250 249 250h66q250 0 250 -250v-887h-203v72q-48 -41 -92 -62.5t-103 -21.5h-2q-88 0 -133 49t-45 141zM131 1206v121q0 105 98 105h17q34 0 53 -6t45 -25l55 -39 q4 -3 11.5 -8.5t10 -7t7 -4t8 -3t8.5 -0.5q21 0 21 25v68h121v-121q0 -105 -99 -105h-16q-33 0 -51 6t-45 25l-58 41q-4 2 -11.5 7t-10 6.5t-7 3.5t-8 2.5t-8.5 0.5q-20 0 -20 -24v-68h-121zM254 238q0 -64 65 -64q54 0 107 33v325l-113 -43q-34 -15 -46.5 -34.5 t-12.5 -57.5v-159z" />
<glyph unicode="&#xe4;" d="M53 178v228q0 99 35 148.5t123 78.5l215 74v174q0 75 -76 75h-14q-76 0 -76 -75v-140h-194v146q0 250 249 250h66q250 0 250 -250v-887h-203v72q-48 -41 -92 -62.5t-103 -21.5h-2q-88 0 -133 49t-45 141zM147 1206v211h170v-211h-170zM254 238q0 -64 65 -64q54 0 107 33 v325l-113 -43q-34 -15 -46.5 -34.5t-12.5 -57.5v-159zM399 1206v211h170v-211h-170z" />
<glyph unicode="&#xe5;" d="M53 178v228q0 99 35 148.5t123 78.5l215 74v174q0 75 -76 75h-14q-76 0 -76 -75v-140h-194v146q0 250 249 250h66q250 0 250 -250v-887h-203v72q-48 -41 -92 -62.5t-103 -21.5h-2q-88 0 -133 49t-45 141zM182 1313v12q0 113 133 113h86q134 0 134 -113v-12 q0 -113 -134 -113h-86q-133 0 -133 113zM233 1313q0 -68 89 -68h75q86 0 86 68v12q0 68 -86 68h-78q-86 0 -86 -68v-12zM254 238q0 -64 65 -64q54 0 107 33v325l-113 -43q-34 -15 -46.5 -34.5t-12.5 -57.5v-159z" />
<glyph unicode="&#xe6;" horiz-adv-x="1058" d="M53 178v236q0 98 35 147t123 78l215 74v168q0 75 -76 75h-14q-76 0 -76 -75v-140h-194v146q0 250 249 250h47q64 0 100.5 -17t65.5 -51q28 34 64 51t102 17h62q250 0 250 -250v-406h-375v-233q0 -76 74 -76h26q76 0 76 76v127h199v-137q0 -250 -250 -250h-80 q-156 0 -215 96l-23 -16q-46 -30 -68.5 -42.5t-60 -25t-76.5 -12.5h-2q-88 0 -133 49t-45 141zM254 238q0 -64 65 -64q54 0 107 33v332l-113 -43q-33 -13 -46 -33.5t-13 -59.5v-165zM631 657h172v222q0 75 -76 75h-22q-74 0 -74 -75v-222z" />
<glyph unicode="&#xe7;" horiz-adv-x="692" d="M55 238v649q0 250 250 250h86q248 0 248 -248v-205h-203v190q0 76 -76 76h-24q-74 0 -74 -76v-624q0 -76 74 -76h26q76 0 76 76v227h203v-239q0 -236 -223 -248l-39 -191h-182l86 189q-228 12 -228 250z" />
<glyph unicode="&#xe8;" d="M55 238v649q0 250 250 250h80q250 0 250 -250v-406h-375v-233q0 -76 74 -76h26q76 0 76 76v119h199v-129q0 -250 -250 -250h-80q-250 0 -250 250zM139 1432h207l76 -226h-146zM260 657h172v222q0 75 -76 75h-22q-74 0 -74 -75v-222z" />
<glyph unicode="&#xe9;" d="M55 238v649q0 250 250 250h80q250 0 250 -250v-406h-375v-233q0 -76 74 -76h26q76 0 76 76v119h199v-129q0 -250 -250 -250h-80q-250 0 -250 250zM260 657h172v222q0 75 -76 75h-22q-74 0 -74 -75v-222zM270 1206l76 226h207l-137 -226h-146z" />
<glyph unicode="&#xea;" d="M55 238v649q0 250 250 250h80q250 0 250 -250v-406h-375v-233q0 -76 74 -76h26q76 0 76 76v119h199v-129q0 -250 -250 -250h-80q-250 0 -250 250zM127 1206l135 226h168l135 -226h-135l-84 101l-84 -101h-135zM260 657h172v222q0 75 -76 75h-22q-74 0 -74 -75v-222z" />
<glyph unicode="&#xeb;" d="M55 238v649q0 250 250 250h80q250 0 250 -250v-406h-375v-233q0 -76 74 -76h26q76 0 76 76v119h199v-129q0 -250 -250 -250h-80q-250 0 -250 250zM135 1206v211h170v-211h-170zM260 657h172v222q0 75 -76 75h-22q-74 0 -74 -75v-222zM387 1206v211h170v-211h-170z" />
<glyph unicode="&#xec;" horiz-adv-x="335" d="M-39 1432h207l76 -226h-146zM63 0v1124h207v-1124h-207z" />
<glyph unicode="&#xed;" horiz-adv-x="335" d="M63 0v1124h207v-1124h-207zM92 1206l76 226h207l-137 -226h-146z" />
<glyph unicode="&#xee;" horiz-adv-x="335" d="M-51 1206l135 226h168l135 -226h-135l-84 101l-84 -101h-135zM63 0v1124h207v-1124h-207z" />
<glyph unicode="&#xef;" horiz-adv-x="335" d="M-43 1206v211h170v-211h-170zM63 0v1124h207v-1124h-207zM209 1206v211h170v-211h-170z" />
<glyph unicode="&#xf0;" horiz-adv-x="708" d="M55 238v684q0 99 50 153.5t143 54.5h2q116 0 205 -79v49q0 43 -16.5 62.5t-63.5 39.5l-193 84l84 164l168 -74l45 78h164l-86 -137q51 -33 72.5 -78t21.5 -113v-888q0 -250 -250 -250h-96q-250 0 -250 250zM262 250q0 -76 74 -76h33q75 0 75 76v624q0 76 -75 76h-33 q-74 0 -74 -76v-624z" />
<glyph unicode="&#xf1;" horiz-adv-x="708" d="M59 0v1124h205v-73q46 41 92 63.5t105 22.5h10q89 0 134.5 -49.5t45.5 -143.5v-944h-207v883q0 34 -16 49.5t-51 15.5q-52 0 -111 -35v-913h-207zM129 1206v121q0 105 98 105h17q34 0 53 -6t45 -25l55 -39q4 -3 11.5 -8.5t10 -7t7 -4t8 -3t8.5 -0.5q21 0 21 25v68h121 v-121q0 -105 -99 -105h-16q-33 0 -51 6t-45 25l-58 41q-4 2 -11.5 7t-10 6.5t-7 3.5t-8 2.5t-8.5 0.5q-20 0 -20 -24v-68h-121z" />
<glyph unicode="&#xf2;" horiz-adv-x="704" d="M55 238v649q0 250 250 250h96q250 0 250 -250v-649q0 -250 -250 -250h-96q-250 0 -250 250zM147 1432h207l76 -226h-145zM262 250q0 -76 74 -76h33q75 0 75 76v624q0 76 -75 76h-33q-74 0 -74 -76v-624z" />
<glyph unicode="&#xf3;" horiz-adv-x="704" d="M55 238v649q0 250 250 250h96q250 0 250 -250v-649q0 -250 -250 -250h-96q-250 0 -250 250zM262 250q0 -76 74 -76h33q75 0 75 76v624q0 76 -75 76h-33q-74 0 -74 -76v-624zM279 1206l75 226h207l-137 -226h-145z" />
<glyph unicode="&#xf4;" horiz-adv-x="704" d="M55 238v649q0 250 250 250h96q250 0 250 -250v-649q0 -250 -250 -250h-96q-250 0 -250 250zM135 1206l135 226h168l135 -226h-135l-84 101l-84 -101h-135zM262 250q0 -76 74 -76h33q75 0 75 76v624q0 76 -75 76h-33q-74 0 -74 -76v-624z" />
<glyph unicode="&#xf5;" horiz-adv-x="704" d="M55 238v649q0 250 250 250h96q250 0 250 -250v-649q0 -250 -250 -250h-96q-250 0 -250 250zM127 1206v121q0 105 98 105h17q34 0 53 -6t45 -25l55 -39q4 -3 11.5 -8.5t10 -7t7 -4t8 -3t8.5 -0.5q21 0 21 25v68h121v-121q0 -105 -99 -105h-16q-33 0 -51 6t-45 25l-58 41 q-4 2 -11.5 7t-10 6.5t-7 3.5t-8 2.5t-8.5 0.5q-20 0 -20 -24v-68h-121zM262 250q0 -76 74 -76h33q75 0 75 76v624q0 76 -75 76h-33q-74 0 -74 -76v-624z" />
<glyph unicode="&#xf6;" horiz-adv-x="704" d="M55 238v649q0 250 250 250h96q250 0 250 -250v-649q0 -250 -250 -250h-96q-250 0 -250 250zM143 1206v211h170v-211h-170zM262 250q0 -76 74 -76h33q75 0 75 76v624q0 76 -75 76h-33q-74 0 -74 -76v-624zM395 1206v211h170v-211h-170z" />
<glyph unicode="&#xf7;" horiz-adv-x="643" d="M20 649v158h603v-158h-603zM236 393v174h172v-174h-172zM236 889v174h172v-174h-172z" />
<glyph unicode="&#xf8;" horiz-adv-x="704" d="M55 238v649q0 250 250 250h96q250 0 250 -250v-649q0 -250 -250 -250h-96q-250 0 -250 250zM258 385l168 545q-17 20 -57 20h-33q-76 0 -76 -76zM276 193q19 -19 60 -19h33q75 0 75 76l5 498z" />
<glyph unicode="&#xf9;" horiz-adv-x="708" d="M57 180v944h207v-882q0 -66 68 -66q54 0 110 35v913h207v-1124h-205v74q-93 -86 -196 -86h-8q-90 0 -136.5 49t-46.5 143zM147 1432h207l76 -226h-145z" />
<glyph unicode="&#xfa;" horiz-adv-x="708" d="M57 180v944h207v-882q0 -66 68 -66q54 0 110 35v913h207v-1124h-205v74q-93 -86 -196 -86h-8q-90 0 -136.5 49t-46.5 143zM279 1206l75 226h207l-137 -226h-145z" />
<glyph unicode="&#xfb;" horiz-adv-x="708" d="M57 180v944h207v-882q0 -66 68 -66q54 0 110 35v913h207v-1124h-205v74q-93 -86 -196 -86h-8q-90 0 -136.5 49t-46.5 143zM135 1206l135 226h168l135 -226h-135l-84 101l-84 -101h-135z" />
<glyph unicode="&#xfc;" horiz-adv-x="708" d="M57 180v944h207v-882q0 -66 68 -66q54 0 110 35v913h207v-1124h-205v74q-93 -86 -196 -86h-8q-90 0 -136.5 49t-46.5 143zM143 1206v211h170v-211h-170zM395 1206v211h170v-211h-170z" />
<glyph unicode="&#xfd;" horiz-adv-x="669" d="M18 1124h207l109 -684l121 684h198l-282 -1349h-199l59 268zM262 1206l76 226h207l-137 -226h-146z" />
<glyph unicode="&#xfe;" horiz-adv-x="710" d="M59 -225v1679h207v-405q92 88 195 88h2q93 0 142.5 -56t49.5 -155v-727q0 -99 -49.5 -155t-142.5 -56h-2q-105 0 -195 82v-295h-207zM266 213q50 -37 109 -37q74 0 74 70v633q0 69 -74 69q-59 0 -109 -37v-698z" />
<glyph unicode="&#xff;" horiz-adv-x="669" d="M18 1124h207l109 -684l121 684h198l-282 -1349h-199l59 268zM127 1206v211h170v-211h-170zM379 1206v211h170v-211h-170z" />
<glyph unicode="&#x152;" horiz-adv-x="1028" d="M61 313v807q0 314 314 314h598v-199h-268v-406h258v-198h-258v-432h272v-199h-602q-158 0 -236 77.5t-78 235.5zM281 319q0 -65 30.5 -95.5t94.5 -30.5h79v1048h-79q-64 0 -94.5 -31t-30.5 -96v-795z" />
<glyph unicode="&#x153;" horiz-adv-x="1077" d="M55 238v649q0 250 250 250h78q65 0 101.5 -17t62.5 -51q28 34 64 51t102 17h61q250 0 250 -250v-406h-375v-233q0 -76 74 -76h27q75 0 75 76v119h199v-129q0 -250 -250 -250h-61q-66 0 -102 16t-64 49q-26 -32 -62.5 -48.5t-101.5 -16.5h-78q-250 0 -250 250zM262 248 q0 -72 72 -72h37q70 0 73 68v633q0 71 -73 71h-37q-72 0 -72 -71v-629zM649 657h172v222q0 75 -76 75h-22q-74 0 -74 -75v-222z" />
<glyph unicode="&#x178;" horiz-adv-x="706" d="M8 1434h225l125 -605l129 605h211l-235 -932v-502h-219v492zM143 1518v168h174v-168h-174zM399 1518v168h174v-168h-174z" />
<glyph unicode="&#x2c6;" horiz-adv-x="1024" d="M293 1206l135 226h168l135 -226h-135l-84 101l-84 -101h-135z" />
<glyph unicode="&#x2dc;" horiz-adv-x="1024" d="M285 1206v121q0 105 98 105h16q34 0 53.5 -6t45.5 -25l55 -39q4 -3 11.5 -8.5t10 -7t7 -4t8 -3t8.5 -0.5q20 0 20 25v68h121v-121q0 -105 -98 -105h-16q-33 0 -51.5 6t-45.5 25l-57 41q-4 2 -11.5 7t-10 6.5t-7 3.5t-8 2.5t-8.5 0.5q-20 0 -20 -24v-68h-121z" />
<glyph unicode="&#x2000;" horiz-adv-x="860" />
<glyph unicode="&#x2001;" horiz-adv-x="1720" />
<glyph unicode="&#x2002;" horiz-adv-x="860" />
<glyph unicode="&#x2003;" horiz-adv-x="1720" />
<glyph unicode="&#x2004;" horiz-adv-x="573" />
<glyph unicode="&#x2005;" horiz-adv-x="430" />
<glyph unicode="&#x2006;" horiz-adv-x="286" />
<glyph unicode="&#x2007;" horiz-adv-x="286" />
<glyph unicode="&#x2008;" horiz-adv-x="215" />
<glyph unicode="&#x2009;" horiz-adv-x="344" />
<glyph unicode="&#x200a;" horiz-adv-x="95" />
<glyph unicode="&#x2010;" horiz-adv-x="436" d="M27 487v191h383v-191h-383z" />
<glyph unicode="&#x2011;" horiz-adv-x="436" d="M27 487v191h383v-191h-383z" />
<glyph unicode="&#x2012;" horiz-adv-x="436" d="M27 487v191h383v-191h-383z" />
<glyph unicode="&#x2013;" horiz-adv-x="763" d="M27 504v158h710v-158h-710z" />
<glyph unicode="&#x2014;" horiz-adv-x="1171" d="M27 504v158h1099v-158h-1099z" />
<glyph unicode="&#x2018;" horiz-adv-x="307" d="M49 934v186q0 88 13 131.5t63 120.5l49 74l84 -25l-27 -59q-45 -99 -51 -156h76v-272h-207z" />
<glyph unicode="&#x2019;" horiz-adv-x="307" d="M49 944l27 62q43 97 51 155h-76v273h207v-187q0 -89 -13.5 -133t-64.5 -119l-47 -73z" />
<glyph unicode="&#x201a;" horiz-adv-x="307" d="M49 -215l27 61q43 100 51 156h-76v272h207v-186q0 -89 -13.5 -133t-64.5 -119l-47 -74z" />
<glyph unicode="&#x201c;" horiz-adv-x="585" d="M49 934v186q0 89 12.5 133t61.5 119l49 74l82 -25l-27 -59q-43 -99 -51 -156h76v-272h-203zM332 934v186q0 89 12.5 133t61.5 119l49 74l82 -25l-27 -59q-43 -99 -51 -156h76v-272h-203z" />
<glyph unicode="&#x201d;" horiz-adv-x="585" d="M49 944l27 62q43 97 51 155h-76v273h203v-187q0 -91 -13 -134.5t-63 -117.5l-47 -73zM332 944l24 62q48 107 52 155h-74v273h203v-187q0 -91 -13 -134.5t-63 -117.5l-47 -73z" />
<glyph unicode="&#x201e;" horiz-adv-x="585" d="M49 -215l27 61q43 100 51 156h-76v272h203v-186q0 -91 -13 -134.5t-63 -117.5l-47 -74zM332 -215l24 61q48 111 52 156h-74v272h203v-186q0 -91 -13 -134.5t-63 -117.5l-47 -74z" />
<glyph unicode="&#x2022;" horiz-adv-x="487" d="M86 633v176q0 115 127 115h61q127 0 127 -115v-176q0 -115 -127 -115h-61q-127 0 -127 115z" />
<glyph unicode="&#x2026;" horiz-adv-x="925" d="M51 0v272h207v-272h-207zM358 0v272h207v-272h-207zM668 0v272h206v-272h-206z" />
<glyph unicode="&#x202f;" horiz-adv-x="344" />
<glyph unicode="&#x2039;" horiz-adv-x="358" d="M8 582l156 327h174l-131 -327l131 -326h-172z" />
<glyph unicode="&#x203a;" horiz-adv-x="358" d="M20 256l132 326l-132 327h175l155 -327l-157 -326h-173z" />
<glyph unicode="&#x205f;" horiz-adv-x="430" />
<glyph unicode="&#x20ac;" horiz-adv-x="770" d="M33 557v127h76v84h-76v127h76v285q0 266 266 266h84q264 0 264 -264v-189h-211v176q0 84 -82 84h-24q-80 0 -80 -84v-274h297v-127h-297v-84h297v-127h-297v-293q0 -84 80 -84h28q82 0 82 84v191h211v-201q0 -266 -266 -266h-86q-266 0 -266 266v303h-76z" />
<glyph unicode="&#x2122;" horiz-adv-x="925" d="M41 1331v103h315v-103h-100v-522h-115v522h-100zM401 809v625h156l68 -441l65 441h156v-625h-109v436l-69 -436h-103l-69 438v-438h-95z" />
<glyph unicode="&#xe000;" horiz-adv-x="1126" d="M0 0v1126h1126v-1126h-1126z" />
</font>
</defs>
</svg>
